<svg width="373" height="36" xmlns="http://www.w3.org/2000/svg">
    <g fill="#000000" fill-rule="evenodd">
        <path d="M57.568.574c4.676 0 8.934 1.79 12.125 4.7l-4.597 4.933c-1.928-2.1-4.589-3.419-7.528-3.419-6.041 0-10.657 5.29-10.657 11.54 0 6.25 4.616 11.538 10.657 11.538 3.046 0 5.792-1.416 7.734-3.648l4.688 4.806A17.947 17.947 0 0 1 57.568 36c-10.31 0-17.92-8.012-17.92-17.713 0-9.7 7.61-17.713 17.92-17.713zm-44.07 0c5.927 0 10.462 2.911 12.884 7.631l-5.745 3.1c-1.295-2.514-3.526-4.8-7.14-4.8-2.989 0-5.187 1.74-5.187 3.666 0 6.329 19.252 3.604 19.252 15.668 0 6.308-5.71 10.161-13.389 10.161C7.082 36 1.833 32.389 0 27.67l5.974-3.225c1.313 3.086 4.422 5.63 8.406 5.63 4.277 0 6.07-2.113 6.07-3.991 0-6.037-19.253-3.448-19.253-15.423 0-6.263 5.558-10.087 12.3-10.087zm160.368.994v27.231h15.059v6.208h-22.153V1.567h7.094zm49.724 0v6.146h-16.147v7.247h14.805v6.052h-14.805v7.847h16.534v6.147h-23.564V1.567h23.177zM237.126 0C239.818 0 242 2.139 242 4.777c0 2.638-2.182 4.778-4.874 4.778-2.692 0-4.874-2.14-4.874-4.778 0-2.638 2.182-4.777 4.874-4.777zm0 1.4c-1.828 0-3.311 1.512-3.311 3.377 0 1.865 1.483 3.377 3.311 3.377 1.83 0 3.311-1.512 3.311-3.377 0-.647-.178-1.252-.488-1.766l-1.466 1.467-1.057-1.057 1.488-1.487a3.25 3.25 0 0 0-1.788-.534zM130.192 1.568l8.189 17.86 8.188-17.86h7.901l-12.435 25.867v7.572h-7.68v-7.572L121.918 1.568h8.273zm-28.767 0 16.075 33.44h-8.213l-2.692-5.87h-6.432v-6.052h3.658l-5.928-12.929-5.927 12.93h3.658v6.05h-6.432l-2.691 5.87h-7.842L94.734 1.568h6.691zM370.176 6A2.824 2.824 0 0 1 373 8.824v18.352A2.824 2.824 0 0 1 370.176 30H256.824A2.824 2.824 0 0 1 254 27.176V8.824A2.824 2.824 0 0 1 256.824 6h113.352zm-81.837 5.864c-.902 0-1.707.156-2.415.469-.708.313-1.265.748-1.67 1.305-.404.558-.604 1.21-.6 1.956-.004.91.296 1.634.9 2.171.543.484 1.264.852 2.163 1.105l.306.08 1.346.337c.45.109.832.229 1.144.361.312.133.55.293.712.482.163.188.245.42.245.698 0 .296-.09.559-.272.788-.18.228-.435.407-.763.535-.328.128-.714.193-1.157.193-.45 0-.854-.07-1.21-.208a1.925 1.925 0 0 1-.851-.62 1.78 1.78 0 0 1-.342-.859l-.017-.172h-2.53c.02.886.237 1.629.65 2.229.412.6.987 1.051 1.726 1.356.738.305 1.607.457 2.605.457 1.006 0 1.866-.151 2.58-.454.715-.303 1.262-.73 1.643-1.281.38-.552.572-1.204.576-1.958-.004-.514-.098-.969-.28-1.366a3.112 3.112 0 0 0-.77-1.035c-.33-.293-.72-.54-1.172-.74-.36-.16-.75-.295-1.166-.404l-.319-.077-1.11-.265a6.153 6.153 0 0 1-.761-.22 3.044 3.044 0 0 1-.628-.306 1.382 1.382 0 0 1-.426-.424.997.997 0 0 1-.141-.578c0-.265.077-.501.232-.71.155-.208.38-.372.673-.49.294-.118.654-.178 1.08-.178.629 0 1.126.135 1.492.404.32.235.52.553.596.954l.026.177h2.505c-.012-.734-.21-1.38-.592-1.938-.382-.557-.916-.992-1.602-1.305-.687-.313-1.489-.47-2.406-.47zm22.425.168h-2.614v8.001c0 .899.213 1.685.64 2.359.426.674 1.024 1.198 1.793 1.573.768.375 1.666.562 2.692.562 1.022 0 1.918-.187 2.686-.562.77-.375 1.368-.9 1.796-1.573.381-.6.593-1.287.635-2.063l.008-.296v-8h-2.614v7.778c0 .47-.103.886-.31 1.251-.208.365-.5.652-.876.86-.376.209-.818.313-1.325.313-.503 0-.944-.104-1.322-.313a2.22 2.22 0 0 1-.878-.86 2.422 2.422 0 0 1-.305-1.053l-.006-.198v-7.779zm48.753-.168c-.902 0-1.707.156-2.415.469-.708.313-1.265.748-1.67 1.305-.404.558-.604 1.21-.6 1.956-.004.91.296 1.634.9 2.171.543.484 1.264.852 2.162 1.105l.307.08 1.346.337c.45.109.832.229 1.144.361.312.133.55.293.712.482.163.188.245.42.245.698 0 .296-.09.559-.272.788-.181.228-.436.407-.764.535-.328.128-.713.193-1.156.193-.45 0-.854-.07-1.21-.208a1.925 1.925 0 0 1-.851-.62 1.78 1.78 0 0 1-.342-.859l-.018-.172h-2.529c.02.886.236 1.629.649 2.229.412.6.988 1.051 1.727 1.356.738.305 1.606.457 2.604.457 1.007 0 1.867-.151 2.581-.454.715-.303 1.262-.73 1.642-1.281.38-.552.573-1.204.577-1.958-.004-.514-.098-.969-.28-1.366a3.112 3.112 0 0 0-.77-1.035c-.33-.293-.721-.54-1.172-.74-.36-.16-.75-.295-1.167-.404l-.318-.077-1.11-.265a6.153 6.153 0 0 1-.761-.22 3.044 3.044 0 0 1-.628-.306 1.382 1.382 0 0 1-.426-.424.997.997 0 0 1-.142-.578c0-.265.078-.501.233-.71.155-.208.38-.372.673-.49.294-.118.654-.178 1.08-.178.628 0 1.125.135 1.492.404.32.235.519.553.596.954l.025.177h2.506c-.012-.734-.21-1.38-.592-1.938-.382-.557-.916-.992-1.603-1.305-.686-.313-1.488-.47-2.405-.47zm-59.086 0c-1.099 0-2.085.247-2.958.743-.874.495-1.564 1.214-2.071 2.156-.507.943-.76 2.086-.76 3.43 0 1.34.253 2.48.76 3.423.507.942 1.197 1.662 2.07 2.16.874.497 1.86.745 2.959.745 1.09 0 2.074-.247 2.949-.743.875-.495 1.567-1.214 2.077-2.156.509-.943.763-2.086.763-3.43 0-1.343-.254-2.486-.763-3.429-.51-.942-1.202-1.661-2.077-2.156-.875-.496-1.859-.743-2.95-.743zm36.819 0c-1.087 0-2.065.247-2.934.743-.87.495-1.557 1.214-2.065 2.156-.507.943-.76 2.086-.76 3.43 0 1.34.25 2.48.751 3.423.501.942 1.186 1.662 2.053 2.16.867.497 1.852.745 2.955.745.793 0 1.504-.119 2.134-.358a5.118 5.118 0 0 0 1.63-.974 4.936 4.936 0 0 0 1.093-1.402 4.8 4.8 0 0 0 .467-1.352l.043-.281-2.644-.012c-.06.329-.168.621-.323.878s-.35.474-.583.653c-.233.178-.5.314-.8.406a3.3 3.3 0 0 1-.975.138c-.624 0-1.173-.152-1.648-.457-.475-.305-.844-.756-1.108-1.354-.263-.597-.395-1.335-.395-2.213 0-.855.13-1.582.392-2.181.262-.6.63-1.057 1.105-1.372.475-.315 1.032-.472 1.672-.472.355 0 .684.05.987.15.304.1.573.245.806.433.234.189.425.416.574.683.119.214.206.45.26.711l.036.2h2.644c-.085-.713-.277-1.347-.577-1.9a4.595 4.595 0 0 0-1.162-1.405 5.095 5.095 0 0 0-1.633-.876 6.39 6.39 0 0 0-1.995-.3zm-70.214.168h-4.878v12.32h2.614l-.001-4.366h1.908l2.343 4.367h2.886l-2.625-4.787.116-.05a3.486 3.486 0 0 0 1.375-1.107l.162-.244c.354-.587.53-1.29.53-2.108 0-.814-.173-1.523-.521-2.127-.348-.603-.854-1.07-1.516-1.402-.588-.294-1.284-.457-2.087-.49l-.306-.006zm14.61 0h-8.332v12.32h8.355v-2.147h-5.74v-2.942h5.287v-2.147h-5.288V14.18h5.717v-2.148zm43.784 0h-4.878v12.32h2.614l-.002-4.366h1.909l2.343 4.367h2.886l-2.625-4.787.116-.05a3.486 3.486 0 0 0 1.375-1.107l.162-.244c.354-.587.53-1.29.53-2.108 0-.814-.173-1.523-.521-2.127-.348-.603-.854-1.07-1.516-1.402-.588-.294-1.284-.457-2.087-.49l-.306-.006zm27.393 0h-8.331v12.32h8.355v-2.147h-5.741v-2.942h5.288v-2.147h-5.288V14.18h5.717v-2.148zm-52.392 2.136c.632 0 1.183.154 1.654.463.47.309.836.762 1.096 1.36.26.597.389 1.331.389 2.202 0 .87-.13 1.604-.39 2.201-.259.598-.624 1.051-1.095 1.36-.47.309-1.022.463-1.654.463-.632 0-1.183-.154-1.654-.463-.471-.309-.836-.762-1.096-1.36-.26-.597-.39-1.331-.39-2.201 0-.87.13-1.605.39-2.202.26-.598.625-1.051 1.096-1.36.47-.309 1.022-.463 1.654-.463zm-33.896-.006c.503 0 .92.073 1.252.22.332.146.58.36.743.64.163.28.244.626.244 1.035 0 .405-.081.744-.244 1.017-.163.272-.41.477-.74.613-.275.114-.608.18-1 .199l-.243.006h-1.776v-3.73h1.764zm58.394 0c.503 0 .92.073 1.252.22.332.146.58.36.743.64.163.28.244.626.244 1.035 0 .405-.081.744-.244 1.017-.163.272-.41.477-.74.613-.275.114-.608.18-1 .199l-.243.006h-1.776v-3.73h1.764z"/>
    </g>
</svg>
